<?xml version="1.0" standalone="no"?>
<!DOCTYPE svg PUBLIC "-//W3C//DTD SVG 1.1//EN" "http://www.w3.org/Graphics/SVG/1.1/DTD/svg11.dtd" >
<svg xmlns="http://www.w3.org/2000/svg">
<metadata></metadata>
<defs>
<font id="titilliummaps26l1_wt" horiz-adv-x="1085" >
<font-face units-per-em="2048" ascent="1536" descent="-512" />
<missing-glyph horiz-adv-x="481" />
<glyph horiz-adv-x="2048" />
<glyph horiz-adv-x="2048" />
<glyph unicode="&#xd;" horiz-adv-x="2048" />
<glyph unicode=" "  horiz-adv-x="481" />
<glyph unicode="&#x09;" horiz-adv-x="481" />
<glyph unicode="&#xa0;" horiz-adv-x="481" />
<glyph unicode="!" horiz-adv-x="536" d="M227 0v164h82v-164h-82zM231 436v996h72v-996h-72z" />
<glyph unicode="&#x22;" horiz-adv-x="573" d="M100 1434h76l-2 -471h-72zM403 1434h76l-2 -471h-71z" />
<glyph unicode="#" d="M27 389v66h245v463h-245v65h245v389h74v-389h385v389h74v-389h246v-65h-246v-463h246v-66h-246v-389h-74v389h-385v-389h-74v389h-245zM346 455h385v463h-385v-463z" />
<glyph unicode="$" d="M125 1034q0 97 30.5 164t90.5 105t138 54.5t185 16.5h41l33 244h72l-33 -248q63 -4 135 -11.5t113 -12.5l41 -5l-6 -69q-162 18 -291 28l-74 -567q77 -14 125 -25t100.5 -29.5t82 -41.5t55.5 -57.5t36.5 -81.5t10.5 -109q0 -214 -109.5 -308.5t-327.5 -94.5q-44 0 -71 2 l-29 -234l-72 15l29 223q-64 4 -137.5 10.5t-115.5 11.5l-42 4l8 72q156 -21 295 -31l80 611q-83 15 -136.5 30t-107 41.5t-83 63.5t-48 94t-18.5 135zM205 1038q0 -63 13.5 -108t36 -74.5t65.5 -50.5t88.5 -33.5t119.5 -26.5l74 560h-33q-183 0 -273.5 -60t-90.5 -207z M512 55h59q178 0 268.5 79.5t90.5 252.5q0 38 -4.5 68t-16.5 54t-25 42t-37 32.5t-46.5 24.5t-59.5 19t-69 15.5t-82 14.5z" />
<glyph unicode="%" d="M66 1165q0 273 210 273q99 0 155 -66.5t56 -208.5t-57 -212t-154 -70q-98 0 -154 70t-56 214zM137 1165q0 -219 139 -219q74 0 107 54.5t33 162.5q0 107 -32.5 158t-107.5 51q-74 0 -106.5 -51t-32.5 -156zM381 12l295 1424l67 -11l-294 -1423zM641 285q0 272 211 272 q99 0 155 -66t56 -208t-57 -212.5t-154 -70.5q-98 0 -154.5 70.5t-56.5 214.5zM713 285q0 -109 33 -164t106 -55q74 0 106.5 54.5t32.5 162.5q0 107 -32 158t-107 51q-74 0 -106.5 -51t-32.5 -156z" />
<glyph unicode="&#x26;" horiz-adv-x="1433" d="M119 426q0 167 83 261.5t251 150.5q-105 113 -105 288q0 131 85.5 213t228.5 82q160 0 236.5 -79.5t76.5 -217.5q0 -148 -77.5 -230t-260.5 -142l383 -379q42 118 63 299h72q-28 -222 -80 -353l287 -280l-49 -53l-269 266q-70 -142 -181.5 -206t-272.5 -64 q-246 0 -358.5 114.5t-112.5 329.5zM190 428q0 -379 404 -379q140 0 238 61.5t159 192.5l-485 481q-163 -47 -239.5 -130t-76.5 -226zM420 1126q0 -163 92 -252l74 -73q90 31 146.5 59t97 66t57 85.5t16.5 114.5q0 230 -241 230q-115 0 -178.5 -64t-63.5 -166z" />
<glyph unicode="'" horiz-adv-x="204" d="M63 1434h76l-2 -430h-71z" />
<glyph unicode="(" horiz-adv-x="532" d="M115 616q0 115 20.5 252t49.5 250.5t58 210.5t49 152l21 55h72q-8 -22 -21 -60t-46.5 -151t-59.5 -219.5t-47 -244t-21 -245.5q0 -107 20 -236t49 -237t57.5 -200.5t48.5 -145.5l20 -53h-72q-8 19 -21.5 52.5t-47.5 135.5t-60 201t-47.5 233.5t-21.5 249.5z" />
<glyph unicode=")" horiz-adv-x="532" d="M115 -246q8 22 21 60t46.5 151t59 219.5t46.5 244t21 245.5q0 107 -20 236t-48.5 237t-57 200.5t-48.5 145.5l-20 53h71q8 -19 21.5 -52.5t48 -135.5t60.5 -201t47.5 -233.5t21.5 -249.5t-20.5 -252t-49.5 -250.5t-58.5 -210.5t-50.5 -152l-20 -55h-71z" />
<glyph unicode="*" d="M258 924l246 178l-244 178l41 55l246 -180l92 285l68 -21l-95 -286h297v-70h-301l92 -285l-65 -20l-92 286l-246 -176z" />
<glyph unicode="+" d="M113 580v73h389v389h82v-389h389v-73h-389v-390h-82v390h-389z" />
<glyph unicode="," horiz-adv-x="348" d="M96 -252l86 430h82l-104 -430h-64z" />
<glyph unicode="-" horiz-adv-x="901" d="M143 520v70h615v-70h-615z" />
<glyph unicode="." horiz-adv-x="507" d="M201 0v164h82v-164h-82z" />
<glyph unicode="/" d="M223 25l568 1413l67 -29l-567 -1411z" />
<glyph unicode="0" d="M76 647q0 172 22.5 300t61.5 208.5t99.5 129.5t127.5 68t154 19q91 0 159.5 -19.5t128.5 -68.5t98 -131t59.5 -209.5t21.5 -300.5q0 -153 -23 -269t-62.5 -189.5t-99.5 -119.5t-127.5 -64.5t-152.5 -18.5t-152.5 18.5t-128 64.5t-100.5 120.5t-63 191t-23 270.5zM154 643 q0 -142 18.5 -247t51 -170.5t82.5 -105t106.5 -54.5t130.5 -15t130 15t106 54.5t82 106t50.5 172t18.5 248.5q0 156 -16.5 269.5t-47 188t-79.5 118.5t-107.5 62t-138.5 18q-78 0 -136 -17t-107 -61t-79.5 -118.5t-47.5 -189.5t-17 -274z" />
<glyph unicode="1" d="M190 1073l412 279h74v-1352h-74v1272l-377 -258z" />
<glyph unicode="2" d="M111 0v70l479 489q137 138 200.5 240.5t63.5 226.5q0 149 -87 213t-251 64q-63 0 -159 -13.5t-161 -27.5l-65 -13l-10 70q227 53 397 53q414 0 414 -346q0 -63 -16 -123.5t-38 -106t-61 -97t-69 -84t-78 -80.5l-459 -463h764v-72h-864z" />
<glyph unicode="3" d="M113 29l12 69l67.5 -13.5t155.5 -21.5t203 -12q342 3 342 316q0 71 -17.5 125t-46 88t-71.5 56t-88.5 31.5t-102.5 12.5h-268v70h266q44 0 92.5 17.5t93.5 50.5t74 90t29 128q0 144 -74 205.5t-245 61.5q-84 0 -182 -12t-154 -24l-56 -12l-12 70q217 47 401 47 q205 0 302.5 -82.5t97.5 -255.5q0 -71 -23.5 -129t-55 -90.5t-66.5 -54.5t-55.5 -29.5t-24.5 -7.5q51 -14 87 -29t71.5 -41.5t57.5 -62.5t35 -91t13 -126q0 -195 -108 -293t-312 -98q-89 0 -198.5 12t-174.5 24z" />
<glyph unicode="4" d="M72 270v62l442 1020h80l-434 -1012h592v489h73v-489h189v-70h-189v-270h-73v270h-680z" />
<glyph unicode="5" d="M125 35l10 69q234 -49 410 -49q161 0 262.5 103.5t101.5 292.5q0 323 -344 323q-76 0 -166 -28t-142 -56l-52 -28l-70 8l39 682h750v-72h-680l-37 -541q8 4 21.5 11t55.5 25.5t83 32t96.5 25t103.5 11.5q92 0 165.5 -20.5t132 -65.5t90.5 -122.5t32 -184.5 q0 -228 -120.5 -346.5t-319.5 -118.5q-82 0 -187.5 12t-169.5 24z" />
<glyph unicode="6" d="M90 690q0 682 498 682q68 0 153.5 -9t136.5 -19l52 -9l-8 -67q-176 35 -334 35q-417 0 -420 -570q0 3 61.5 26t158 47.5t167.5 24.5q209 0 324.5 -99.5t115.5 -297.5q0 -209 -122 -330.5t-330 -121.5q-222 0 -337.5 185t-115.5 523zM166 662q3 -136 26 -245.5 t67.5 -192.5t116.5 -128t167 -45q174 0 274.5 101.5t100.5 281.5q0 165 -98 246.5t-267 81.5q-77 0 -174 -25t-155 -50z" />
<glyph unicode="7" d="M121 1282v70h797v-154l-537 -1216l-72 28l531 1204v68h-719z" />
<glyph unicode="8" d="M53 344q0 82 20 143t62 103t86.5 68.5t112.5 54.5q-128 45 -193 118.5t-65 204.5q0 170 122.5 253t350.5 83q227 0 354 -83t127 -255q0 -132 -69 -206t-213 -115q69 -20 120 -46t94.5 -65.5t66 -98.5t22.5 -136q0 -89 -26 -157t-70 -110.5t-109.5 -69.5t-137 -37.5 t-159.5 -10.5q-83 0 -153.5 11t-135 37.5t-109.5 67t-71.5 103.5t-26.5 143zM133 346q0 -295 416 -295q98 0 171.5 14.5t132.5 49t89.5 97.5t30.5 153q0 46 -9.5 84t-24 66t-40.5 51t-50 38.5t-61 29.5t-66 22.5t-73 19.5h-223q-145 -35 -219 -109.5t-74 -220.5zM154 1034 q0 -120 66 -186.5t206 -104.5h223q150 36 225.5 103t75.5 186q0 146 -100.5 208.5t-300.5 62.5q-198 0 -296.5 -61.5t-98.5 -207.5z" />
<glyph unicode="9" d="M102 936q0 200 125.5 318t319.5 118q230 0 345.5 -182t115.5 -526q0 -189 -35 -323.5t-103.5 -212t-157.5 -112t-208 -34.5q-68 0 -154.5 10.5t-139.5 21.5l-52 11l12 65q176 -39 334 -39q422 0 428 559q-28 -10 -73.5 -24t-154.5 -38t-180 -24q-199 0 -310.5 104 t-111.5 308zM180 936q0 -172 90 -257t258 -85q65 0 166.5 22t170.5 44l69 22q-3 297 -98 459t-289 162q-164 0 -265.5 -99t-101.5 -268z" />
<glyph unicode=":" horiz-adv-x="288" d="M158 0v164h82v-164h-82zM158 705v163h82v-163h-82z" />
<glyph unicode=";" horiz-adv-x="348" d="M76 -252l84 430h86l-107 -430h-63zM154 705v163h82v-163h-82z" />
<glyph unicode="&#x3c;" d="M186 582v73l670 449v-80l-604 -401l604 -424v-84z" />
<glyph unicode="=" d="M129 377v74h827v-74h-827zM129 719v74h827v-74h-827z" />
<glyph unicode="&#x3e;" d="M229 115v84l605 424l-605 401v80l670 -449v-73z" />
<glyph unicode="?" horiz-adv-x="790" d="M41 1401q208 51 319 51q201 0 295.5 -74t94.5 -250q0 -75 -40 -149.5t-97 -136t-114 -121t-97 -125.5t-40 -129v-78h-71v84q0 59 28.5 120.5t71.5 111t93.5 105t93.5 103.5t71.5 105t28.5 110q0 144 -75 200t-243 56q-44 0 -121 -13t-133 -25l-55 -13zM287 2v164h82v-164 h-82z" />
<glyph unicode="@" horiz-adv-x="2017" d="M123 535q0 258 56 438.5t172 290.5t282.5 159.5t398.5 49.5q234 0 398 -50t267 -156.5t150 -263t47 -378.5v-35q0 -173 -17.5 -290.5t-42 -180.5t-73.5 -94.5t-88.5 -38t-111.5 -6.5q-41 0 -64.5 1.5t-51.5 8.5t-44.5 20.5t-32.5 38t-27 60.5q-228 -127 -391 -127 q-26 0 -45.5 1t-49 6.5t-52 15.5t-50 28.5t-47.5 44t-40 65.5t-33 89t-21 117t-8 149q0 138 20 234.5t68.5 168.5t133 106.5t208.5 34.5q52 0 120 -14t110 -28l41 -13v37h71v-410q0 -109 1 -185t6 -139.5t9.5 -102t17 -68.5t23 -44t33 -22.5t41.5 -10t54 -1.5q31 0 50.5 1.5 t45.5 7t41.5 16t34.5 30t30.5 47.5t23.5 69t18 95t10 125t4 158v37q0 207 -41.5 351t-135 241.5t-243.5 142.5t-367 45q-218 0 -370 -44.5t-258 -146.5t-155.5 -269.5t-49.5 -411.5q0 -204 33 -352.5t96.5 -249.5t166 -162t232 -87t305.5 -26q36 0 109.5 5t128.5 10l55 5 l6 -67q-201 -19 -299 -19q-157 0 -278.5 18.5t-226 61.5t-177.5 114.5t-125.5 175.5t-77 246.5t-24.5 326.5zM676 492q0 -117 18 -202.5t44.5 -131t66 -72t72 -33t73.5 -6.5q164 0 377 123q-22 129 -22 444v308q-150 55 -271 55q-107 0 -178.5 -31t-110 -96t-54 -149.5 t-15.5 -208.5z" />
<glyph unicode="A" horiz-adv-x="1236" d="M82 0l440 1434h197l438 -1434h-74l-139 440h-651l-137 -440h-74zM313 510h611l-260 854h-91z" />
<glyph unicode="B" horiz-adv-x="1284" d="M221 0v1434h471q203 0 308.5 -90.5t105.5 -258.5q0 -133 -54 -223t-145 -123q50 -14 93.5 -40t80.5 -66t58.5 -100t21.5 -132q0 -401 -430 -401h-510zM295 70h436q165 0 259.5 80.5t94.5 250.5q0 56 -15.5 101.5t-39.5 75.5t-58 53t-67 35.5t-71 20t-65 9.5t-54 2h-420 v-628zM295 766h420q161 0 238 85.5t77 233.5q0 136 -84.5 207.5t-253.5 71.5h-397v-598z" />
<glyph unicode="C" horiz-adv-x="1099" d="M129 711q0 99 4.5 176t18 156.5t36.5 138.5t61 112t90 86t125 52.5t165 19.5q87 0 179 -10t140 -20l49 -9l-6 -72q-196 41 -362 41q-81 0 -144.5 -17.5t-107.5 -47t-75.5 -78.5t-49.5 -100.5t-28.5 -126t-13.5 -141.5t-3 -160q0 -91 3.5 -159.5t14.5 -141t29.5 -123.5 t50 -98t75.5 -75.5t106.5 -45.5t142.5 -17q64 0 154.5 10.5t148.5 20.5l59 10l6 -69q-206 -41 -368 -41q-104 0 -183.5 23t-134 70t-90.5 108t-56 147t-28 175.5t-8 205.5z" />
<glyph unicode="D" horiz-adv-x="1337" d="M221 0v1434h512q104 0 187.5 -40t137 -107t89 -158.5t50.5 -188t15 -203.5t-15 -207.5t-50.5 -198.5t-89 -170t-137 -116.5t-187.5 -44.5h-512zM295 70h438q88 0 159 42t115.5 109.5t74 157t41.5 178.5t12 180t-12 176t-41.5 168.5t-74 145t-115 99.5t-159.5 38h-438 v-1294z" />
<glyph unicode="E" horiz-adv-x="1171" d="M221 0v1434h817v-70h-743v-592h620v-70h-620v-632h743v-70h-817z" />
<glyph unicode="F" horiz-adv-x="1153" d="M221 0v1434h819v-70h-745v-647h623v-70h-623v-647h-74z" />
<glyph unicode="G" horiz-adv-x="1263" d="M133 711q0 137 12.5 241.5t47.5 202t92.5 160.5t151.5 100t222 37q96 0 206 -13t173 -25l62 -13l-6 -72q-249 53 -435 53q-94 0 -166.5 -22t-121 -66.5t-80.5 -101t-49.5 -136.5t-24 -160t-6.5 -185q0 -126 10 -219t39 -180t78 -141.5t129.5 -87t191.5 -32.5 q64 0 152.5 10.5t151 20.5t63.5 10v549h-297v70h371v-678q-279 -51 -441 -51q-124 0 -216.5 35t-151 96t-94.5 155t-50 200t-14 243z" />
<glyph unicode="H" horiz-adv-x="1425" d="M221 0v1434h74v-680h835v680h74v-1434h-74v684h-835v-684h-74z" />
<glyph unicode="I" horiz-adv-x="462" d="M195 0v1434h73v-1434h-73z" />
<glyph unicode="J" horiz-adv-x="622" d="M82 -80q58 0 96.5 4t70.5 17t50.5 34t31 57.5t17 84.5t4.5 119v1200h74l2 -1221q0 -82 -6.5 -139.5t-24.5 -99t-41.5 -65.5t-66 -38t-89 -18.5t-118.5 -4.5v70z" />
<glyph unicode="K" horiz-adv-x="1222" d="M221 0v1434h74v-691h244l450 691h88l-473 -721l506 -713h-94l-473 674h-248v-674h-74z" />
<glyph unicode="L" d="M221 0v1434h74v-1364h678v-70h-752z" />
<glyph unicode="M" horiz-adv-x="1742" d="M221 0v1434h158l491 -1321l496 1321h156v-1434h-74v1364h-29l-499 -1321h-103l-493 1321h-29v-1364h-74z" />
<glyph unicode="N" horiz-adv-x="1406" d="M221 0v1434h174l662 -1364h55v1364h74v-1434h-174l-664 1364h-53v-1364h-74z" />
<glyph unicode="O" horiz-adv-x="1343" d="M133 711q0 377 124.5 559t414.5 182t414 -180.5t124 -560.5q0 -392 -121 -560.5t-417 -168.5q-150 0 -253.5 43.5t-166.5 136t-91 226t-28 323.5zM211 711q0 -139 14 -242t46.5 -184.5t85.5 -131.5t131 -76t184 -26q133 0 221.5 36t142 118t75.5 203t22 303 q0 344 -105 507.5t-356 163.5q-130 0 -219 -41t-142.5 -127t-76.5 -208t-23 -295z" />
<glyph unicode="P" horiz-adv-x="1259" d="M221 0v1434h502q424 0 424 -433q0 -106 -25 -191t-75.5 -149.5t-132.5 -99.5t-191 -35h-428v-526h-74zM295 596h428q90 0 158 31t108.5 87t60 127.5t19.5 159.5q0 177 -83 270t-263 93h-428v-768z" />
<glyph unicode="Q" horiz-adv-x="1343" d="M133 711q0 142 14 249.5t50 203t96 157t155 96.5t224 35t224 -34.5t155 -95.5t96 -156.5t49.5 -203.5t13.5 -251q0 -134 -10 -234t-35.5 -189t-73 -151t-118.5 -98l166 -287l-74 -35l-168 293q-98 -28 -225 -28q-131 0 -226 33t-155 91.5t-95.5 152.5t-49 200.5 t-13.5 251.5zM211 711q0 -94 5 -166.5t17.5 -143.5t34.5 -122.5t57 -96.5t83 -72.5t114 -43t150 -15.5t150 14.5t114.5 40.5t83 69.5t56.5 94.5t34.5 122.5t17.5 146t5 172.5q0 129 -11 225.5t-41 184t-80.5 142.5t-133 87t-195.5 32q-114 0 -197 -31.5t-133.5 -86 t-80 -142.5t-40 -183.5t-10.5 -227.5z" />
<glyph unicode="R" horiz-adv-x="1290" d="M221 0v1434h494q212 0 319 -104.5t107 -305.5q0 -167 -71 -279t-226 -141l323 -604h-84l-317 596l-51 -2h-420v-594h-74zM295 664h420q348 0 348 360q0 340 -348 340h-420v-700z" />
<glyph unicode="S" horiz-adv-x="1097" d="M119 1096q0 180 112 270t320 90q70 0 169.5 -8t163.5 -16l64 -9l-8 -71q-270 34 -389 34q-174 0 -264 -73.5t-90 -212.5q0 -68 15 -117.5t41.5 -83t75 -56.5t103.5 -37.5t139 -27.5q106 -17 178.5 -41.5t126 -66t78.5 -104t25 -150.5q0 -222 -104.5 -326t-319.5 -104 q-68 0 -175 8t-180 16l-73 8l8 72q273 -35 418 -35q348 0 348 355q0 138 -77.5 201.5t-270.5 93.5q-91 14 -153.5 30.5t-119.5 45t-90 69t-52 102t-19 144.5z" />
<glyph unicode="T" horiz-adv-x="1024" d="M18 1364v70h986v-70h-453v-1364h-74v1364h-459z" />
<glyph unicode="U" horiz-adv-x="1314" d="M186 401v1033h74v-1033q0 -175 101.5 -262.5t285.5 -87.5q198 0 303 86.5t105 263.5v1033h73v-1033q0 -211 -123.5 -315t-357.5 -104q-221 0 -341 104t-120 315z" />
<glyph unicode="V" horiz-adv-x="1185" d="M82 1434h74l383 -1364h118l373 1364h74l-387 -1434h-238z" />
<glyph unicode="W" horiz-adv-x="1785" d="M102 1434h72l293 -1364h78l307 1343h82l317 -1343h78l283 1364h71l-294 -1434h-197l-299 1317l-289 -1317h-196z" />
<glyph unicode="X" horiz-adv-x="1189" d="M92 0l453 711l-453 723h88l416 -668l414 668h88l-447 -723l447 -711h-88l-412 659l-418 -659h-88z" />
<glyph unicode="Y" horiz-adv-x="1105" d="M61 1434h84l410 -736l403 736h86l-452 -818v-616h-74v616z" />
<glyph unicode="Z" horiz-adv-x="1167" d="M133 -2v141l825 1176v49h-825v70h901v-144l-825 -1177v-45h825v-70h-901z" />
<glyph unicode="[" horiz-adv-x="614" d="M98 -252v1786h375v-66h-301v-1654h301v-66h-375z" />
<glyph unicode="\" d="M197 1407l71 29l617 -1407l-72 -29z" />
<glyph unicode="]" horiz-adv-x="614" d="M104 -186h302v1654h-302v66h375v-1786h-375v66z" />
<glyph unicode="^" d="M143 682l351 670h75l371 -670h-86l-324 596l-305 -596h-82z" />
<glyph unicode="_" d="M55 -172h975v-70h-975v70z" />
<glyph unicode="`" horiz-adv-x="1116" d="M307 1436l33 63l393 -196l-31 -56z" />
<glyph unicode="a" horiz-adv-x="1060" d="M133 281q0 269 293 299l358 36v107q0 131 -56 190.5t-171 59.5q-67 0 -158.5 -8.5t-150.5 -16.5l-58 -8l-6 68q209 34 373 34q154 0 226.5 -79.5t72.5 -239.5v-588q42 -76 154 -86l-4 -65q-134 0 -203 86q-21 -10 -58.5 -24.5t-142.5 -39t-199 -24.5q-120 0 -195 83 t-75 216zM209 281q0 -98 56 -166t141 -68q90 0 184.5 20.5t143.5 40.5l50 21v420l-350 -33q-115 -10 -170 -72.5t-55 -162.5z" />
<glyph unicode="b" horiz-adv-x="1101" d="M227 0v1495h72v-528q17 8 47 20.5t117 33.5t168 21q82 0 143.5 -25.5t100 -69t62.5 -109t33 -138.5t9 -165q0 -103 -12 -182t-43 -151t-82.5 -118.5t-134.5 -74t-195 -27.5q-62 0 -133 4.5t-111 9.5zM299 57q139 -10 211 -10q100 0 172 26t114 67t66.5 106.5t32.5 130.5 t8 153q0 101 -11 175t-39.5 139t-84 99t-137.5 34q-81 0 -164 -19t-125 -38l-43 -19v-844z" />
<glyph unicode="c" horiz-adv-x="894" d="M143 535q0 270 96.5 388.5t323.5 118.5q35 0 91 -5t95 -10l39 -5l-4 -66q-143 21 -221 21q-192 0 -268 -104t-76 -338q0 -106 8 -179t29.5 -135.5t60 -98.5t99 -55.5t147.5 -19.5q35 0 91 4.5t95 9.5l39 5l5 -66q-152 -18 -230 -18q-103 0 -175 20.5t-120 60.5t-75.5 109 t-38.5 154.5t-11 208.5z" />
<glyph unicode="d" horiz-adv-x="1101" d="M143 498q0 273 100.5 408.5t329.5 135.5q97 0 250 -24v477h72v-1495h-72v74q-19 -10 -51.5 -25.5t-120.5 -41t-162 -25.5q-346 0 -346 516zM215 492q0 -102 15.5 -181.5t47.5 -139.5t85.5 -92t125.5 -32q68 0 151.5 24t133.5 48l49 24v813q-139 21 -250 21 q-195 0 -276.5 -120.5t-81.5 -364.5z" />
<glyph unicode="e" horiz-adv-x="1038" d="M131 512q0 141 30 245t86 165t128 90.5t162 29.5q378 0 378 -491v-68h-708q0 -96 14.5 -171t47.5 -137t94 -95t147 -33q64 0 154.5 4.5t149.5 9.5l58 5l5 -66q-219 -18 -369 -18q-104 0 -178.5 38t-117 110.5t-62 166t-19.5 215.5zM207 549h633q0 227 -76.5 327.5 t-226.5 100.5q-71 0 -129.5 -23.5t-104 -73t-71 -134t-25.5 -197.5z" />
<glyph unicode="f" horiz-adv-x="671" d="M72 958v66h141v125q0 203 59.5 283.5t200.5 80.5l168 -6v-63q-111 4 -168 4q-105 0 -146.5 -66.5t-41.5 -234.5v-123h331v-66h-331v-958h-72v958h-141z" />
<glyph unicode="g" horiz-adv-x="1032" d="M121 -164q0 45 13 83t41.5 71.5t52.5 54.5t67 53q-45 27 -45 133q0 14 15 54.5t31 74.5l15 33q-176 84 -176 309q0 155 93.5 248.5t248.5 93.5q49 0 94 -6.5t65 -13.5l21 -6l312 6v-72h-232q94 -87 94 -250q0 -169 -93.5 -252t-268.5 -83q-52 0 -102 8q-48 -117 -48 -144 q0 -21 1 -33.5t6 -25.5t11.5 -20t21.5 -13.5t32 -9t47.5 -5t63 -3t82.5 -0.5q81 0 136.5 -6.5t102 -24t73.5 -48t41.5 -79t14.5 -117.5q0 -166 -110 -250.5t-324 -84.5q-209 0 -303 74.5t-94 250.5zM195 -162q0 -143 77.5 -202.5t247.5 -59.5q175 0 266 69t91 201 q0 55 -11.5 92.5t-32.5 60.5t-59.5 35.5t-82 16.5t-111.5 4l-232 6q-86 -68 -119.5 -112t-33.5 -111zM209 702q0 -270 260 -270q143 0 215 65.5t72 204.5q0 277 -281 277q-126 0 -196 -74t-70 -203z" />
<glyph unicode="h" horiz-adv-x="1161" d="M207 0v1495h72v-532q20 9 54 22t123 35t158 22q85 0 142.5 -17.5t96 -52.5t59.5 -98.5t29.5 -143t8.5 -198.5v-532h-71v528q0 105 -6 173.5t-22 125.5t-46 87.5t-76 46.5t-115 16q-72 0 -156 -20.5t-132 -40.5l-47 -21v-895h-72z" />
<glyph unicode="i" horiz-adv-x="440" d="M184 0v1024h72v-1024h-72zM184 1321v113h72v-113h-72z" />
<glyph unicode="j" horiz-adv-x="477" d="M-41 -383q84 50 131.5 87t78.5 83t41.5 96.5t10.5 128.5v1012h72v-1014q0 -91 -12.5 -151t-49.5 -113t-91.5 -94.5t-151.5 -97.5zM221 1321v113h72v-113h-72z" />
<glyph unicode="k" horiz-adv-x="989" d="M227 0v1495h72v-897h180l365 426h84l-385 -463l385 -561h-84l-365 526h-180v-526h-72z" />
<glyph unicode="l" horiz-adv-x="460" d="M195 0v1495h71v-1495h-71z" />
<glyph unicode="m" horiz-adv-x="1792" d="M248 0v1024h71v-82q7 4 18.5 11t47.5 24t71.5 30t85 24t93.5 11q107 0 161.5 -25.5t100.5 -82.5q23 12 61.5 30t136.5 48t171 30q85 0 142.5 -17.5t96 -52.5t59.5 -98.5t29.5 -143t8.5 -198.5v-532h-72v528q0 105 -6 173.5t-21.5 125.5t-45.5 87.5t-76 46.5t-115 16 q-70 0 -156 -25.5t-137 -51.5l-51 -26q49 -132 49 -342v-532h-72v528q0 251 -56 350t-208 99q-45 0 -94.5 -10.5t-87.5 -25.5t-69 -30.5t-48 -26.5l-17 -10v-874h-71z" />
<glyph unicode="n" horiz-adv-x="1173" d="M227 0v1024h72v-82q7 4 19 11t49 24t75 30t92 24t103 11q85 0 142.5 -17.5t96 -52.5t59.5 -98.5t29.5 -143t8.5 -198.5v-532h-72v528q0 105 -6 173.5t-21.5 125.5t-45.5 87.5t-76 46.5t-115 16q-51 0 -104.5 -10.5t-93.5 -25.5t-73 -30.5t-50 -26.5l-17 -10v-874h-72z " />
<glyph unicode="o" horiz-adv-x="1077" d="M133 535q0 272 92.5 389.5t317.5 117.5q207 0 304 -124t97 -388q0 -113 -11.5 -196.5t-38.5 -152t-73 -111t-115 -65.5t-163 -23q-121 0 -200 30.5t-125.5 100.5t-65.5 170t-19 252zM209 535q0 -106 8 -179t29 -135.5t58.5 -98.5t96 -55.5t142.5 -19.5q83 0 141.5 22 t94 59.5t55.5 101t27 132.5t7 168q0 231 -77.5 339t-247.5 108q-184 0 -259 -99.5t-75 -342.5z" />
<glyph unicode="p" horiz-adv-x="1105" d="M227 -471v1495h72v-82q6 4 17 11t46.5 24t72.5 30t91.5 24t106.5 11q180 0 265 -136.5t85 -379.5q0 -276 -101 -410t-333 -134q-137 0 -250 24v-477h-72zM299 72q141 -25 250 -25q194 0 276 115.5t82 369.5q0 214 -71 329.5t-203 115.5q-78 0 -161.5 -26.5t-127.5 -52.5 l-45 -26v-800z" />
<glyph unicode="q" horiz-adv-x="1101" d="M143 489q0 291 107.5 422t359.5 131q44 0 115 -4.5t121 -9.5l49 -4v-1495h-72v530q-14 -9 -40.5 -21.5t-108 -34t-162.5 -21.5q-103 0 -175 35t-114 103t-61 158t-19 211zM219 494q0 -105 14 -183t47 -139.5t91 -93t141 -31.5q81 0 158.5 20.5t115.5 40.5l37 21v836 q-139 12 -211 12q-112 0 -188 -29t-121.5 -91t-64.5 -149.5t-19 -213.5z" />
<glyph unicode="r" horiz-adv-x="724" d="M207 0v1024h72v-160q7 5 20.5 14.5t55.5 35.5t85 48t105 45.5t119 36.5v-69q-80 -17 -176.5 -61.5t-152.5 -80.5l-56 -36v-797h-72z" />
<glyph unicode="s" horiz-adv-x="989" d="M133 768q0 76 29 131.5t79 85.5t107.5 43.5t124.5 13.5q70 0 155.5 -7t135.5 -14l51 -7l-4 -68q-199 31 -338 31q-53 0 -97.5 -10t-83.5 -32t-61 -63.5t-22 -99.5q0 -61 22.5 -97.5t83 -62.5t174.5 -43q108 -17 171 -34t109.5 -47.5t64.5 -76t18 -116.5 q0 -172 -96.5 -242.5t-282.5 -70.5q-52 0 -134 7.5t-138 14.5l-56 8l9 68q211 -33 315 -33q77 0 130 10.5t95 36.5t62 74.5t20 120.5q0 105 -59.5 144t-247.5 69q-187 29 -261.5 83.5t-74.5 182.5z" />
<glyph unicode="t" horiz-adv-x="761" d="M72 958v66h161v334h72v-334h352v-66h-352v-536q0 -92 4 -149.5t14.5 -105.5t32 -72t55 -37t83.5 -13q25 0 70 3.5t78 7.5l32 3l6 -65q-114 -14 -186 -14q-142 0 -201.5 80.5t-59.5 283.5v614h-161z" />
<glyph unicode="u" horiz-adv-x="1140" d="M211 492v532h72v-528q0 -105 6 -173.5t21.5 -125.5t45.5 -87.5t76 -46.5t115 -16q72 0 150.5 25.5t121.5 51.5l43 26v874h72v-1024h-72v82q-6 -4 -18 -11t-47.5 -24t-71.5 -30t-85 -24t-93 -11q-85 0 -142.5 17.5t-96 52.5t-59.5 98.5t-29.5 143t-8.5 198.5z" />
<glyph unicode="v" horiz-adv-x="983" d="M82 1024h76l288 -958h89l292 958h76l-313 -1024h-201z" />
<glyph unicode="w" horiz-adv-x="1558" d="M86 1024h76l252 -958h47l278 938h80l279 -938h45l254 958h76l-273 -1024h-160l-262 918l-264 -918h-160z" />
<glyph unicode="x" horiz-adv-x="933" d="M86 1024h82l299 -457l299 457h82l-338 -512l336 -512h-84l-295 457l-295 -457h-84l336 512z" />
<glyph unicode="y" horiz-adv-x="983" d="M80 1024h76l288 -958h91l292 958h76l-461 -1495h-75l149 471h-129z" />
<glyph unicode="z" horiz-adv-x="985" d="M123 66l655 892h-655v66h737l4 -66l-655 -892h655v-66h-737z" />
<glyph unicode="{" horiz-adv-x="583" d="M0 602v66q116 29 164.5 86t48.5 159q0 26 -7 124.5t-7 138.5q0 185 82.5 270t277.5 92l4 -65q-167 -7 -230 -78.5t-63 -218.5q0 -35 7.5 -125.5t7.5 -118.5q0 -132 -45 -194.5t-160 -100.5q114 -37 159.5 -100.5t45.5 -190.5q0 -40 -7.5 -118.5t-7.5 -118.5 q0 -145 63.5 -217.5t229.5 -79.5l-4 -66q-194 7 -277 92.5t-83 270.5q0 44 7 136.5t7 114.5q0 98 -48 153t-165 89z" />
<glyph unicode="|" d="M496 -512v2048h71v-2048h-71z" />
<glyph unicode="}" horiz-adv-x="583" d="M-2 -197q167 7 230 78.5t63 218.5q0 35 -7.5 125.5t-7.5 118.5q0 132 45 194.5t160 100.5q-114 37 -159.5 100.5t-45.5 190.5q0 40 7.5 118.5t7.5 118.5q0 145 -63.5 217.5t-229.5 79.5l4 66q194 -7 277 -92.5t83 -270.5q0 -44 -7 -137t-7 -115q0 -98 48 -152.5 t165 -88.5v-66q-116 -29 -164.5 -86.5t-48.5 -159.5q0 -26 7 -124t7 -138q0 -185 -82.5 -270t-277.5 -92z" />
<glyph unicode="~" d="M139 649q13 12 34.5 30.5t77 49.5t97.5 31q55 0 133.5 -28t150 -55.5t107.5 -27.5q34 0 82 27.5t79 54.5l32 27l14 -76q-5 -4 -13 -11.5t-32 -26t-47.5 -32.5t-55 -25.5t-57.5 -11.5q-67 0 -206.5 55.5t-186.5 55.5q-34 0 -82.5 -27t-79.5 -54l-32 -27z" />
<glyph unicode="&#xa1;" horiz-adv-x="536" d="M227 858v164h82v-164h-82zM233 -410v996h72v-996h-72z" />
<glyph unicode="&#xa2;" horiz-adv-x="894" d="M121 506q0 224 89.5 328t266.5 110v266h72v-268q41 -2 100 -7t98 -9l39 -4l-4 -72q-204 20 -282 20q-164 0 -230.5 -83t-66.5 -281q0 -104 14 -168t50.5 -106t96 -58t156.5 -16q35 0 101.5 4t115.5 8l49 4l5 -72q-152 -16 -240 -18v-258h-72v258q-99 3 -163 22.5 t-110 66.5t-65.5 127.5t-19.5 205.5z" />
<glyph unicode="&#xa3;" d="M111 0v70h208v696h-161v65h161v130q0 134 14 217t49.5 131.5t85.5 66t132 17.5q36 0 107.5 -5.5t125.5 -11.5l54 -6v-65q-217 22 -287 22q-83 0 -125.5 -27.5t-63 -105.5t-20.5 -231v-132h475v-65h-475v-696h377l168 32l14 -65l-166 -35q-106 0 -337 -1t-336 -1z" />
<glyph unicode="&#xa4;" horiz-adv-x="1083" d="M127 154l145 143q-78 95 -78 219t78 219l-145 144l53 53l144 -146q95 78 219 78t219 -78l143 146l53 -53l-145 -144q78 -95 78 -219t-78 -219l145 -143l-53 -54l-143 146q-95 -78 -219 -78t-219 78l-144 -146zM270 517q0 -115 78 -195q80 -78 195 -78t194 78 q78 80 78 195t-78 194q-79 78 -194 78t-195 -78q-78 -79 -78 -194z" />
<glyph unicode="&#xa5;" horiz-adv-x="1105" d="M51 1352h84l420 -633l414 633h86l-391 -604h344v-70h-390l-26 -41v-195h418v-69h-418v-373h-74v373h-420v69h420v195l-26 41h-396v70h350z" />
<glyph unicode="&#xa6;" d="M489 360h72v-872h-72v872zM489 684v852h72v-852h-72z" />
<glyph unicode="&#xa7;" d="M164 580q0 62 27.5 123t54.5 91l28 31q-90 69 -90 234q0 145 94 219t265 74q57 0 137 -7t131 -13l51 -7l-4 -65q-217 26 -315 26q-287 0 -287 -225q0 -56 13 -96t34 -65.5t62.5 -43t83 -27t110.5 -20.5q87 -14 143.5 -31t104.5 -48.5t70 -82.5t22 -125q0 -59 -20 -124 t-40 -100l-20 -36q74 -59 74 -190q0 -159 -91.5 -241.5t-262.5 -82.5q-55 0 -141 7t-144 13l-59 7l6 65q225 -28 338 -28q137 0 209.5 64.5t72.5 193.5q0 36 -7 64t-17.5 48t-32.5 35.5t-41 25t-56.5 18t-64.5 13t-78 11.5q-92 13 -154.5 32t-111 52t-71.5 85t-23 126z M236 584q0 -111 71 -161t232 -73q165 -25 227 -55q7 12 17 32.5t27 79t17 109.5q0 50 -14 86.5t-35 59t-60.5 39t-76 25t-96.5 17.5q-158 25 -219 54q-10 -12 -25 -33t-40 -77.5t-25 -102.5z" />
<glyph unicode="&#xa8;" horiz-adv-x="1705" d="M229 1307v127h72v-127h-72zM618 1307v127h72v-127h-72z" />
<glyph unicode="&#xa9;" d="M20 889q0 149 67.5 274t188 198t267.5 73q148 0 268.5 -73t188 -198t67.5 -274t-67.5 -273.5t-188 -197t-268.5 -72.5t-268 72.5t-187.5 197t-67.5 273.5zM86 889q0 -200 130.5 -338.5t326.5 -138.5t327 138.5t131 338.5t-131 339.5t-327 139.5t-326.5 -139.5 t-130.5 -339.5zM319 887q0 59 5.5 104.5t20.5 86.5t39.5 67t64.5 41.5t94 15.5q35 0 72.5 -3.5t58.5 -6.5l20 -4l-2 -66q-83 15 -149 15q-42 0 -71 -11.5t-46 -30.5t-26.5 -52.5t-12 -68t-2.5 -87.5q0 -127 32.5 -186.5t125.5 -59.5q25 0 62.5 4t62.5 8l24 4l2 -65 q-88 -17 -151 -17q-66 0 -111 22t-69 65t-34 97t-10 128z" />
<glyph unicode="&#xaa;" d="M262 954q0 144 154 156l209 14v47q0 65 -24.5 89t-82.5 24q-31 0 -84.5 -3.5t-91.5 -6.5l-37 -4l-4 63q141 17 217 17q89 0 129.5 -42.5t40.5 -138.5v-274q7 -24 24.5 -34t51.5 -13l-4 -57q-38 1 -62 11t-49 34q-128 -45 -243 -45q-64 0 -104 44.5t-40 118.5zM330 950 q0 -94 82 -94q41 0 94 8.5t86 17.5l33 9v174l-199 -12q-52 -3 -74 -27t-22 -76z" />
<glyph unicode="&#xab;" horiz-adv-x="980" d="M92 479v74l342 264v-80l-276 -217l276 -239v-84zM516 479v74l342 264v-80l-276 -217l276 -239v-84z" />
<glyph unicode="&#xac;" d="M141 610v70h811v-422h-73v352h-738z" />
<glyph unicode="&#xad;" horiz-adv-x="901" d="M143 520v70h615v-70h-615z" />
<glyph unicode="&#xae;" d="M20 889q0 149 67.5 274t188 198t267.5 73q148 0 268.5 -73t188 -198t67.5 -274t-67.5 -273.5t-188 -197t-268.5 -72.5t-268 72.5t-187.5 197t-67.5 273.5zM86 889q0 -200 130.5 -338.5t326.5 -138.5t327 138.5t131 338.5t-131 339.5t-327 139.5t-326.5 -139.5 t-130.5 -339.5zM334 565v645h186q130 0 183 -41.5t53 -142.5q0 -155 -121 -186l133 -275h-72l-135 269h-162v-269h-65zM399 899h164q69 0 98 27.5t29 99.5q0 67 -39 93t-125 26h-127v-246z" />
<glyph unicode="&#xaf;" horiz-adv-x="913" d="M184 1315v65h547v-65h-547z" />
<glyph unicode="&#xb0;" d="M221 1155q0 125 77.5 202t201.5 77t201 -77t77 -202q0 -124 -76.5 -200t-201.5 -76t-202 76t-77 200zM291 1155q0 -95 57 -153t152 -58t154 58t59 153t-59 154t-154 59t-152 -58.5t-57 -154.5z" />
<glyph unicode="&#xb1;" d="M113 119v74h860v-74h-860zM113 584v73h389v347h82v-347h389v-73h-389v-314h-82v314h-389z" />
<glyph unicode="&#xb2;" horiz-adv-x="542" d="M57 979v70l201 213q38 40 57 63.5t36.5 62t17.5 76.5q0 53 -32 78t-85 25q-31 0 -77 -6.5t-77 -12.5l-30 -6l-5 68q105 26 191 26q188 0 188 -174q0 -66 -32.5 -121t-100.5 -127l-155 -165h303v-70h-400z" />
<glyph unicode="&#xb3;" horiz-adv-x="542" d="M59 983l7 66q111 -19 213 -19q65 0 97 32t32 87q0 125 -123 125h-133v69h133q36 0 70 39.5t34 90.5q0 48 -27 71t-92 23q-42 0 -91 -4.5t-77 -9.5l-28 -5l-6 66q108 22 200 22q101 0 149 -39t48 -124q0 -40 -13 -72.5t-33 -50.5t-31.5 -25.5t-20.5 -11.5q41 -11 63.5 -25 t37.5 -47.5t15 -89.5q0 -190 -204 -190q-44 0 -99 5.5t-88 11.5z" />
<glyph unicode="&#xb4;" horiz-adv-x="1157" d="M307 1303l393 196l33 -63l-395 -189z" />
<glyph unicode="&#xb6;" d="M16 1073q0 159 110 260t271 101h672v-68h-199v-1366h-73v1366h-312v-1366h-73v717h-15q-162 0 -271.5 99t-109.5 257z" />
<glyph unicode="&#xb7;" horiz-adv-x="507" d="M201 553v164h82v-164h-82z" />
<glyph unicode="&#xb8;" horiz-adv-x="1705" d="M811 -403l4 57q90 -8 160 -8q48 0 73 21.5t25 72.5q0 86 -98 86h-111v176h68v-119q114 0 163.5 -30t49.5 -113q0 -78 -45 -115t-123 -37q-40 0 -81.5 2t-63.5 4z" />
<glyph unicode="&#xb9;" horiz-adv-x="542" d="M80 1481l203 137h73v-639h-73v559l-168 -115z" />
<glyph unicode="&#xba;" d="M274 1073q0 143 58.5 210t177.5 67q118 0 174.5 -66.5t56.5 -210.5t-57 -213t-174 -69q-236 0 -236 282zM344 1073q0 -116 39 -166.5t127 -50.5t125 50t37 167q0 116 -37 163.5t-125 47.5q-89 0 -127.5 -47.5t-38.5 -163.5z" />
<glyph unicode="&#xbb;" horiz-adv-x="980" d="M123 197v84l276 239l-276 217v80l342 -264v-74zM547 197v84l276 239l-276 217v80l342 -264v-74z" />
<glyph unicode="&#xbf;" horiz-adv-x="790" d="M41 -104q0 75 40 149.5t96.5 136t113.5 121t97 125.5t40 129v78h72v-84q0 -59 -28.5 -120.5t-71.5 -111t-93.5 -105t-93.5 -103.5t-71.5 -105t-28.5 -110q0 -144 74.5 -200t242.5 -56q44 0 121 13t133 25l55 13l11 -68q-209 -51 -320 -51q-201 0 -295 74t-94 250z M422 858v164h82v-164h-82z" />
<glyph unicode="&#xc0;" horiz-adv-x="1236" d="M82 0l440 1434h197l438 -1434h-74l-139 440h-651l-137 -440h-74zM313 510h611l-260 854h-91zM385 1825l33 63l393 -196l-31 -56z" />
<glyph unicode="&#xc1;" horiz-adv-x="1236" d="M82 0l440 1434h197l438 -1434h-74l-139 440h-651l-137 -440h-74zM313 510h611l-260 854h-91zM426 1692l393 196l33 -63l-395 -189z" />
<glyph unicode="&#xc2;" horiz-adv-x="1236" d="M82 0l440 1434h197l438 -1434h-74l-139 440h-651l-137 -440h-74zM313 510h611l-260 854h-91zM313 1647l275 256h61l275 -256h-93l-213 196l-210 -196h-95z" />
<glyph unicode="&#xc3;" horiz-adv-x="1236" d="M82 0l440 1434h197l438 -1434h-74l-139 440h-651l-137 -440h-74zM291 1761q13 13 34 32.5t70.5 52t79.5 32.5q37 0 104.5 -32t131 -64.5t90.5 -32.5q16 0 53 26t66 52l28 26l23 -57q-12 -13 -31.5 -31.5t-65 -50t-73.5 -31.5q-37 0 -104.5 33t-131 66t-90.5 33 q-19 0 -60 -28.5t-73 -56.5l-31 -28zM313 510h611l-260 854h-91z" />
<glyph unicode="&#xc4;" horiz-adv-x="1236" d="M82 0l440 1434h197l438 -1434h-74l-139 440h-651l-137 -440h-74zM313 510h611l-260 854h-91zM381 1716v127h72v-127h-72zM782 1716v127h72v-127h-72z" />
<glyph unicode="&#xc5;" horiz-adv-x="1236" d="M82 0l428 1393q-90 46 -90 163q0 88 54 138.5t144 50.5t144.5 -50.5t54.5 -138.5q0 -111 -86 -161l426 -1395h-74l-139 440h-651l-137 -440h-74zM313 510h611l-260 854h-91zM487 1556q0 -103 91 -122h79q44 9 68.5 40.5t24.5 81.5q0 61 -35 94t-97 33t-96.5 -33 t-34.5 -94z" />
<glyph unicode="&#xc6;" horiz-adv-x="1734" d="M51 0l441 1434h1110v-70h-744v-592h621v-70h-621v-632h744v-70h-818v440h-522l-137 -440h-74zM283 510h501v854h-241z" />
<glyph unicode="&#xc7;" horiz-adv-x="1099" d="M129 711q0 99 4.5 176t18 156.5t36.5 138.5t61 112t90 86t125 52.5t165 19.5q87 0 179 -10t140 -20l49 -9l-6 -72q-196 41 -362 41q-81 0 -144.5 -17.5t-107.5 -47t-75.5 -78.5t-49.5 -100.5t-28.5 -126t-13.5 -141.5t-3 -160q0 -91 3.5 -159.5t14.5 -141t29.5 -123.5 t50 -98t75.5 -75.5t106.5 -45.5t142.5 -17q64 0 154.5 10.5t148.5 20.5l59 10l6 -69q-188 -37 -346 -41v-99q114 0 163.5 -30t49.5 -113q0 -78 -45 -115t-123 -37q-40 0 -81.5 2t-62.5 4l-22 3l5 57q89 -8 159 -8q99 0 99 94q0 86 -99 86h-110v158q-94 4 -166.5 30t-122 74 t-82.5 108.5t-51 145t-25.5 171t-7.5 198.5z" />
<glyph unicode="&#xc8;" horiz-adv-x="1171" d="M221 0v1434h817v-70h-743v-592h620v-70h-620v-632h743v-70h-817zM389 1825l33 63l393 -196l-31 -56z" />
<glyph unicode="&#xc9;" horiz-adv-x="1171" d="M221 0v1434h817v-70h-743v-592h620v-70h-620v-632h743v-70h-817zM457 1692l393 196l33 -63l-396 -189z" />
<glyph unicode="&#xca;" horiz-adv-x="1171" d="M221 0v1434h817v-70h-743v-592h620v-70h-620v-632h743v-70h-817zM326 1647l274 256h62l274 -256h-92l-213 196l-211 -196h-94z" />
<glyph unicode="&#xcb;" horiz-adv-x="1171" d="M221 0v1434h817v-70h-743v-592h620v-70h-620v-632h743v-70h-817zM414 1716v127h71v-127h-71zM815 1716v127h72v-127h-72z" />
<glyph unicode="&#xcc;" horiz-adv-x="462" d="M18 1825l33 63l393 -196l-30 -56zM195 0v1434h73v-1434h-73z" />
<glyph unicode="&#xcd;" horiz-adv-x="462" d="M18 1692l394 196l32 -63l-395 -189zM195 0v1434h73v-1434h-73z" />
<glyph unicode="&#xce;" horiz-adv-x="462" d="M-72 1647l275 256h61l275 -256h-93l-213 196l-210 -196h-95zM195 0v1434h73v-1434h-73z" />
<glyph unicode="&#xcf;" horiz-adv-x="462" d="M16 1716v127h72v-127h-72zM195 0v1434h73v-1434h-73zM418 1716v127h71v-127h-71z" />
<glyph unicode="&#xd0;" horiz-adv-x="1337" d="M53 684v70h168v680h512q104 0 187.5 -40t137 -107t89 -158.5t50.5 -188t15 -203.5t-15 -207.5t-50.5 -198.5t-89 -170t-137 -116.5t-187.5 -44.5h-512v684h-168zM295 70h438q88 0 159 42t115.5 109.5t74 157t41.5 178.5t12 180t-12 176t-41.5 168.5t-74 145t-115 99.5 t-159.5 38h-438v-610h352v-70h-352v-614z" />
<glyph unicode="&#xd1;" horiz-adv-x="1406" d="M221 0v1434h174l662 -1364h55v1364h74v-1434h-174l-664 1364h-53v-1364h-74zM375 1757q13 13 34 32.5t70.5 52t79.5 32.5q37 0 104.5 -32t131 -64.5t90.5 -32.5q16 0 53 26t66 52l28 26l23 -57q-12 -13 -31.5 -31.5t-65 -50t-73.5 -31.5q-37 0 -104.5 32.5t-131 65.5 t-90.5 33q-19 0 -60 -28t-73 -56l-31 -28z" />
<glyph unicode="&#xd2;" horiz-adv-x="1343" d="M133 711q0 377 124.5 559t414.5 182t414 -180.5t124 -560.5q0 -392 -121 -560.5t-417 -168.5q-150 0 -253.5 43.5t-166.5 136t-91 226t-28 323.5zM211 711q0 -139 14 -242t46.5 -184.5t85.5 -131.5t131 -76t184 -26q133 0 221.5 36t142 118t75.5 203t22 303 q0 344 -105 507.5t-356 163.5q-130 0 -219 -41t-142.5 -127t-76.5 -208t-23 -295zM459 1825l33 63l393 -196l-31 -56z" />
<glyph unicode="&#xd3;" horiz-adv-x="1343" d="M133 711q0 377 124.5 559t414.5 182t414 -180.5t124 -560.5q0 -392 -121 -560.5t-417 -168.5q-150 0 -253.5 43.5t-166.5 136t-91 226t-28 323.5zM211 711q0 -139 14 -242t46.5 -184.5t85.5 -131.5t131 -76t184 -26q133 0 221.5 36t142 118t75.5 203t22 303 q0 344 -105 507.5t-356 163.5q-130 0 -219 -41t-142.5 -127t-76.5 -208t-23 -295zM459 1692l393 196l33 -63l-396 -189z" />
<glyph unicode="&#xd4;" horiz-adv-x="1343" d="M133 711q0 377 124.5 559t414.5 182t414 -180.5t124 -560.5q0 -392 -121 -560.5t-417 -168.5q-150 0 -253.5 43.5t-166.5 136t-91 226t-28 323.5zM211 711q0 -139 14 -242t46.5 -184.5t85.5 -131.5t131 -76t184 -26q133 0 221.5 36t142 118t75.5 203t22 303 q0 344 -105 507.5t-356 163.5q-130 0 -219 -41t-142.5 -127t-76.5 -208t-23 -295zM367 1657l274 256h61l275 -256h-92l-213 196l-211 -196h-94z" />
<glyph unicode="&#xd5;" horiz-adv-x="1343" d="M133 711q0 377 124.5 559t414.5 182t414 -180.5t124 -560.5q0 -392 -121 -560.5t-417 -168.5q-150 0 -253.5 43.5t-166.5 136t-91 226t-28 323.5zM211 711q0 -139 14 -242t46.5 -184.5t85.5 -131.5t131 -76t184 -26q133 0 221.5 36t142 118t75.5 203t22 303 q0 344 -105 507.5t-356 163.5q-130 0 -219 -41t-142.5 -127t-76.5 -208t-23 -295zM346 1757q13 13 34 32.5t70.5 52t79.5 32.5q37 0 104.5 -32t131 -64.5t90.5 -32.5q16 0 53 26t66 52l29 26l22 -57q-12 -13 -31.5 -31.5t-65 -50t-73.5 -31.5q-37 0 -104.5 32.5t-131 65.5 t-90.5 33q-19 0 -60 -28t-72 -56l-31 -28z" />
<glyph unicode="&#xd6;" horiz-adv-x="1343" d="M133 711q0 377 124.5 559t414.5 182t414 -180.5t124 -560.5q0 -392 -121 -560.5t-417 -168.5q-150 0 -253.5 43.5t-166.5 136t-91 226t-28 323.5zM211 711q0 -139 14 -242t46.5 -184.5t85.5 -131.5t131 -76t184 -26q133 0 221.5 36t142 118t75.5 203t22 303 q0 344 -105 507.5t-356 163.5q-130 0 -219 -41t-142.5 -127t-76.5 -208t-23 -295zM457 1716v127h71v-127h-71zM858 1716v127h72v-127h-72z" />
<glyph unicode="&#xd7;" d="M205 272l305 303l-305 306l57 57l299 -303l309 303l54 -51l-306 -312l306 -296l-58 -60l-305 305l-303 -305z" />
<glyph unicode="&#xd8;" horiz-adv-x="1343" d="M133 711q0 377 124.5 559t414.5 182q167 0 284 -63l109 233l68 -29l-117 -247q102 -86 148 -242.5t46 -392.5q0 -392 -121 -560.5t-417 -168.5q-160 0 -271 51l-122 -260l-68 26l127 273q-108 80 -156.5 237t-48.5 402zM211 711q0 -220 37 -358.5t123 -211.5l553 1178 q-101 63 -252 63q-130 0 -219 -41t-142.5 -127t-76.5 -208t-23 -295zM432 98q90 -47 240 -47q133 0 221.5 36t142 118t75.5 203t22 303q0 409 -150 563z" />
<glyph unicode="&#xd9;" horiz-adv-x="1314" d="M186 401v1033h74v-1033q0 -175 101.5 -262.5t285.5 -87.5q198 0 303 86.5t105 263.5v1033h73v-1033q0 -211 -123.5 -315t-357.5 -104q-221 0 -341 104t-120 315zM444 1825l33 63l393 -196l-30 -56z" />
<glyph unicode="&#xda;" horiz-adv-x="1314" d="M186 401v1033h74v-1033q0 -175 101.5 -262.5t285.5 -87.5q198 0 303 86.5t105 263.5v1033h73v-1033q0 -211 -123.5 -315t-357.5 -104q-221 0 -341 104t-120 315zM444 1692l394 196l32 -63l-395 -189z" />
<glyph unicode="&#xdb;" horiz-adv-x="1314" d="M186 401v1033h74v-1033q0 -175 101.5 -262.5t285.5 -87.5q198 0 303 86.5t105 263.5v1033h73v-1033q0 -211 -123.5 -315t-357.5 -104q-221 0 -341 104t-120 315zM354 1647l275 256h61l275 -256h-93l-213 196l-210 -196h-95z" />
<glyph unicode="&#xdc;" horiz-adv-x="1314" d="M186 401v1033h74v-1033q0 -175 101.5 -262.5t285.5 -87.5q198 0 303 86.5t105 263.5v1033h73v-1033q0 -211 -123.5 -315t-357.5 -104q-221 0 -341 104t-120 315zM444 1716v127h72v-127h-72zM846 1716v127h72v-127h-72z" />
<glyph unicode="&#xdd;" horiz-adv-x="1105" d="M61 1434h84l410 -736l403 736h86l-452 -818v-616h-74v616zM340 1692l393 196l33 -63l-395 -189z" />
<glyph unicode="&#xde;" horiz-adv-x="1259" d="M221 0v1434h74v-250h428q424 0 424 -432q0 -106 -25 -191.5t-75.5 -150t-132.5 -99.5t-191 -35h-428v-276h-74zM295 346h428q90 0 158 31t108.5 87t60 128t19.5 160q0 177 -83 269.5t-263 92.5h-428v-768z" />
<glyph unicode="&#xdf;" horiz-adv-x="1206" d="M207 0v1149q0 206 81.5 285t272.5 79q194 0 271 -64t77 -212q0 -100 -35.5 -158.5t-103.5 -95.5q-77 -40 -105 -65.5t-28 -67.5q0 -18 4 -30t20 -31.5t52.5 -43.5t95.5 -55q58 -31 90 -48.5t68.5 -41.5t54 -42.5t34 -44.5t22 -55t5.5 -67q0 -223 -89.5 -316t-293.5 -93 l-223 8l8 69q178 -8 213 -8q172 0 240 76.5t68 263.5q0 42 -11 71t-45 58.5t-73.5 52.5t-118.5 64q-121 62 -160 106t-39 107q0 69 34.5 104t131.5 84q55 27 80.5 72t25.5 127q0 116 -58.5 161.5t-211.5 45.5q-78 0 -127 -12.5t-85.5 -47.5t-52 -98.5t-15.5 -163.5v-1122 h-74z" />
<glyph unicode="&#xe0;" horiz-adv-x="1097" d="M133 281q0 269 293 299l358 36v107q0 131 -56 190.5t-171 59.5q-67 0 -158.5 -8.5t-150.5 -16.5l-58 -8l-6 68q209 34 373 34q154 0 226.5 -79.5t72.5 -239.5v-588q42 -76 154 -86l-4 -65q-134 0 -203 86q-21 -10 -58.5 -24.5t-142.5 -39t-199 -24.5q-120 0 -195 83 t-75 216zM209 281q0 -98 56 -166t141 -68q90 0 184.5 20.5t143.5 40.5l50 21v420l-350 -33q-115 -10 -170 -72.5t-55 -162.5zM295 1436l33 63l393 -196l-31 -56z" />
<glyph unicode="&#xe1;" horiz-adv-x="1097" d="M133 281q0 269 293 299l358 36v107q0 131 -56 190.5t-171 59.5q-67 0 -158.5 -8.5t-150.5 -16.5l-58 -8l-6 68q209 34 373 34q154 0 226.5 -79.5t72.5 -239.5v-588q42 -76 154 -86l-4 -65q-134 0 -203 86q-21 -10 -58.5 -24.5t-142.5 -39t-199 -24.5q-120 0 -195 83 t-75 216zM209 281q0 -98 56 -166t141 -68q90 0 184.5 20.5t143.5 40.5l50 21v420l-350 -33q-115 -10 -170 -72.5t-55 -162.5zM326 1303l393 196l33 -63l-396 -189z" />
<glyph unicode="&#xe2;" horiz-adv-x="1097" d="M133 281q0 269 293 299l358 36v107q0 131 -56 190.5t-171 59.5q-67 0 -158.5 -8.5t-150.5 -16.5l-58 -8l-6 68q209 34 373 34q154 0 226.5 -79.5t72.5 -239.5v-588q42 -76 154 -86l-4 -65q-134 0 -203 86q-21 -10 -58.5 -24.5t-142.5 -39t-199 -24.5q-120 0 -195 83 t-75 216zM209 281q0 -98 56 -166t141 -68q90 0 184.5 20.5t143.5 40.5l50 21v420l-350 -33q-115 -10 -170 -72.5t-55 -162.5zM225 1229l248 270h57l250 -270h-88l-188 205l-191 -205h-88z" />
<glyph unicode="&#xe3;" horiz-adv-x="1097" d="M133 281q0 269 293 299l358 36v107q0 131 -56 190.5t-171 59.5q-67 0 -158.5 -8.5t-150.5 -16.5l-58 -8l-6 68q209 34 373 34q154 0 226.5 -79.5t72.5 -239.5v-588q42 -76 154 -86l-4 -65q-134 0 -203 86q-21 -10 -58.5 -24.5t-142.5 -39t-199 -24.5q-120 0 -195 83 t-75 216zM197 1368q11 11 29.5 27t63.5 42.5t75 26.5q43 0 156.5 -54t144.5 -54q16 0 48 21t56 42l23 21l18 -62q-10 -10 -26 -24.5t-55.5 -39t-67.5 -24.5q-43 0 -157 55.5t-145 55.5q-19 0 -55 -23t-62 -46l-26 -23zM209 281q0 -98 56 -166t141 -68q90 0 184.5 20.5 t143.5 40.5l50 21v420l-350 -33q-115 -10 -170 -72.5t-55 -162.5z" />
<glyph unicode="&#xe4;" horiz-adv-x="1097" d="M133 281q0 269 293 299l358 36v107q0 131 -56 190.5t-171 59.5q-67 0 -158.5 -8.5t-150.5 -16.5l-58 -8l-6 68q209 34 373 34q154 0 226.5 -79.5t72.5 -239.5v-588q42 -76 154 -86l-4 -65q-134 0 -203 86q-21 -10 -58.5 -24.5t-142.5 -39t-199 -24.5q-120 0 -195 83 t-75 216zM209 281q0 -98 56 -166t141 -68q90 0 184.5 20.5t143.5 40.5l50 21v420l-350 -33q-115 -10 -170 -72.5t-55 -162.5zM289 1307v127h71v-127h-71zM678 1307v127h72v-127h-72z" />
<glyph unicode="&#xe5;" horiz-adv-x="1097" d="M133 281q0 269 293 299l358 36v107q0 131 -56 190.5t-171 59.5q-67 0 -158.5 -8.5t-150.5 -16.5l-58 -8l-6 68q209 34 373 34q154 0 226.5 -79.5t72.5 -239.5v-588q42 -76 154 -86l-4 -65q-134 0 -203 86q-21 -10 -58.5 -24.5t-142.5 -39t-199 -24.5q-120 0 -195 83 t-75 216zM209 281q0 -98 56 -166t141 -68q90 0 184.5 20.5t143.5 40.5l50 21v420l-350 -33q-115 -10 -170 -72.5t-55 -162.5zM324 1372q0 82 56.5 138.5t139.5 56.5q82 0 137.5 -56.5t55.5 -138.5q0 -83 -55.5 -138.5t-137.5 -55.5q-83 0 -139.5 55.5t-56.5 138.5zM393 1372 q0 -54 36.5 -92.5t90.5 -38.5q52 0 88.5 38.5t36.5 92.5q0 53 -36.5 91t-88.5 38q-53 0 -90 -38t-37 -91z" />
<glyph unicode="&#xe6;" horiz-adv-x="1695" d="M113 281q0 49 7 87t20 67.5t37 51t51.5 37t70 27t86.5 19.5t107 16l292 30v107q0 132 -57 191t-170 59q-68 0 -164 -4.5t-159 -9.5l-62 -5l-4 68q225 20 389 20q236 0 285 -196q100 196 352 196q195 0 292 -116t97 -375v-68h-727q0 -223 69.5 -329.5t241.5 -106.5 q64 0 157 4.5t154 9.5l62 5l4 -66q-229 -18 -379 -18q-202 0 -293 118l-77 -32q-8 -3 -22 -9t-59.5 -21t-92.5 -26t-115 -20.5t-133 -9.5q-127 0 -193.5 75t-66.5 224zM188 281q0 -113 50 -173.5t137 -60.5q85 0 199 25.5t172 45t96 34.5q-62 121 -62 397l-377 -37 q-114 -10 -164.5 -65t-50.5 -166zM856 549h651q0 231 -75 329.5t-238 98.5q-338 0 -338 -428z" />
<glyph unicode="&#xe7;" horiz-adv-x="894" d="M143 535q0 270 96.5 388.5t323.5 118.5q35 0 91 -5t95 -10l39 -5l-4 -66q-143 21 -221 21q-192 0 -268 -104t-76 -338q0 -106 8 -179t29.5 -135.5t60 -98.5t99 -55.5t147.5 -19.5q35 0 91 4.5t95 9.5l39 5l5 -66q-152 -18 -230 -18h-24v-99q114 0 163.5 -30t49.5 -113 q0 -78 -45 -115t-123 -37q-40 0 -81.5 2t-62.5 4l-22 3l4 57q90 -8 160 -8q48 0 73 21.5t25 72.5q0 86 -98 86h-111v162q-79 8 -135.5 34t-94 68t-59 108t-30.5 146t-9 191z" />
<glyph unicode="&#xe8;" horiz-adv-x="1038" d="M131 512q0 141 30 245t86 165t128 90.5t162 29.5q378 0 378 -491v-68h-708q0 -96 14.5 -171t47.5 -137t94 -95t147 -33q64 0 154.5 4.5t149.5 9.5l58 5l5 -66q-219 -18 -369 -18q-104 0 -178.5 38t-117 110.5t-62 166t-19.5 215.5zM207 549h633q0 227 -76.5 327.5 t-226.5 100.5q-71 0 -129.5 -23.5t-104 -73t-71 -134t-25.5 -197.5zM313 1436l33 63l393 -196l-30 -56z" />
<glyph unicode="&#xe9;" horiz-adv-x="1038" d="M131 512q0 141 30 245t86 165t128 90.5t162 29.5q378 0 378 -491v-68h-708q0 -96 14.5 -171t47.5 -137t94 -95t147 -33q64 0 154.5 4.5t149.5 9.5l58 5l5 -66q-219 -18 -369 -18q-104 0 -178.5 38t-117 110.5t-62 166t-19.5 215.5zM207 549h633q0 227 -76.5 327.5 t-226.5 100.5q-71 0 -129.5 -23.5t-104 -73t-71 -134t-25.5 -197.5zM313 1303l394 196l32 -63l-395 -189z" />
<glyph unicode="&#xea;" horiz-adv-x="1038" d="M131 512q0 141 30 245t86 165t128 90.5t162 29.5q378 0 378 -491v-68h-708q0 -96 14.5 -171t47.5 -137t94 -95t147 -33q64 0 154.5 4.5t149.5 9.5l58 5l5 -66q-219 -18 -369 -18q-104 0 -178.5 38t-117 110.5t-62 166t-19.5 215.5zM207 549h633q0 227 -76.5 327.5 t-226.5 100.5q-71 0 -129.5 -23.5t-104 -73t-71 -134t-25.5 -197.5zM246 1229l248 270h57l250 -270h-88l-189 205l-190 -205h-88z" />
<glyph unicode="&#xeb;" horiz-adv-x="1038" d="M131 512q0 141 30 245t86 165t128 90.5t162 29.5q378 0 378 -491v-68h-708q0 -96 14.5 -171t47.5 -137t94 -95t147 -33q64 0 154.5 4.5t149.5 9.5l58 5l5 -66q-219 -18 -369 -18q-104 0 -178.5 38t-117 110.5t-62 166t-19.5 215.5zM207 549h633q0 227 -76.5 327.5 t-226.5 100.5q-71 0 -129.5 -23.5t-104 -73t-71 -134t-25.5 -197.5zM299 1307v127h72v-127h-72zM688 1307v127h72v-127h-72z" />
<glyph unicode="&#xec;" horiz-adv-x="534" d="M-10 1436l33 63l393 -196l-31 -56zM231 0v1024h72v-1024h-72z" />
<glyph unicode="&#xed;" horiz-adv-x="534" d="M117 1303l393 196l33 -63l-396 -189zM231 0v1024h72v-1024h-72z" />
<glyph unicode="&#xee;" horiz-adv-x="534" d="M-10 1229l248 270h57l250 -270h-88l-189 205l-190 -205h-88zM231 0v1024h72v-1024h-72z" />
<glyph unicode="&#xef;" horiz-adv-x="534" d="M57 1307v127h72v-127h-72zM231 0v1024h72v-1024h-72zM446 1307v127h72v-127h-72z" />
<glyph unicode="&#xf0;" d="M106 438q0 195 113 313.5t305 118.5q71 0 168 -22.5t158 -45.5l61 -22q-5 149 -88.5 284.5t-253.5 238.5l-243 -164l-41 55l217 147q-121 64 -273 109l27 63q177 -53 311 -129l209 142l41 -56l-182 -124q352 -229 352 -619q0 -278 -46 -441t-140.5 -233.5t-253.5 -70.5 q-206 0 -323.5 119t-117.5 337zM180 438q0 -187 95 -287t272 -100q136 0 213 59.5t114 201.5t39 397q-27 10 -70.5 25.5t-146.5 41t-168 25.5q-162 0 -255 -100t-93 -263z" />
<glyph unicode="&#xf1;" horiz-adv-x="1175" d="M227 0v1024h72v-82q7 4 19 11t49 24t75 30t92 24t103 11q85 0 142.5 -17.5t96 -52.5t59.5 -98.5t29.5 -143t8.5 -198.5v-532h-72v528q0 105 -6 173.5t-21.5 125.5t-45.5 87.5t-76 46.5t-115 16q-51 0 -104.5 -10.5t-93.5 -25.5t-73 -30.5t-50 -26.5l-17 -10v-874h-72z M305 1368q11 11 29.5 27t63.5 42.5t75 26.5q43 0 156.5 -54t144.5 -54q16 0 48 21t56 42l23 21l19 -62q-10 -10 -26 -24.5t-56 -39t-68 -24.5q-43 0 -156.5 55.5t-144.5 55.5q-19 0 -55 -23t-62 -46l-26 -23z" />
<glyph unicode="&#xf2;" horiz-adv-x="1097" d="M133 535q0 272 92.5 389.5t317.5 117.5q207 0 304 -124t97 -388q0 -113 -11.5 -196.5t-38.5 -152t-73 -111t-115 -65.5t-163 -23q-121 0 -200 30.5t-125.5 100.5t-65.5 170t-19 252zM209 535q0 -106 8 -179t29 -135.5t58.5 -98.5t96 -55.5t142.5 -19.5q83 0 141.5 22 t94 59.5t55.5 101t27 132.5t7 168q0 231 -77.5 339t-247.5 108q-184 0 -259 -99.5t-75 -342.5zM285 1436l32 63l394 -196l-31 -56z" />
<glyph unicode="&#xf3;" horiz-adv-x="1097" d="M133 535q0 272 92.5 389.5t317.5 117.5q207 0 304 -124t97 -388q0 -113 -11.5 -196.5t-38.5 -152t-73 -111t-115 -65.5t-163 -23q-121 0 -200 30.5t-125.5 100.5t-65.5 170t-19 252zM209 535q0 -106 8 -179t29 -135.5t58.5 -98.5t96 -55.5t142.5 -19.5q83 0 141.5 22 t94 59.5t55.5 101t27 132.5t7 168q0 231 -77.5 339t-247.5 108q-184 0 -259 -99.5t-75 -342.5zM367 1303l393 196l33 -63l-396 -189z" />
<glyph unicode="&#xf4;" horiz-adv-x="1097" d="M133 535q0 272 92.5 389.5t317.5 117.5q207 0 304 -124t97 -388q0 -113 -11.5 -196.5t-38.5 -152t-73 -111t-115 -65.5t-163 -23q-121 0 -200 30.5t-125.5 100.5t-65.5 170t-19 252zM209 535q0 -106 8 -179t29 -135.5t58.5 -98.5t96 -55.5t142.5 -19.5q83 0 141.5 22 t94 59.5t55.5 101t27 132.5t7 168q0 231 -77.5 339t-247.5 108q-184 0 -259 -99.5t-75 -342.5zM262 1229l248 270h57l250 -270h-88l-188 205l-191 -205h-88z" />
<glyph unicode="&#xf5;" horiz-adv-x="1097" d="M133 535q0 272 92.5 389.5t317.5 117.5q207 0 304 -124t97 -388q0 -113 -11.5 -196.5t-38.5 -152t-73 -111t-115 -65.5t-163 -23q-121 0 -200 30.5t-125.5 100.5t-65.5 170t-19 252zM209 535q0 -106 8 -179t29 -135.5t58.5 -98.5t96 -55.5t142.5 -19.5q83 0 141.5 22 t94 59.5t55.5 101t27 132.5t7 168q0 231 -77.5 339t-247.5 108q-184 0 -259 -99.5t-75 -342.5zM233 1368q11 11 29.5 27t63.5 42.5t75 26.5q43 0 156.5 -54t144.5 -54q16 0 48 21t56 42l23 21l19 -62q-10 -10 -26 -24.5t-56 -39t-68 -24.5q-43 0 -156.5 55.5t-144.5 55.5 q-19 0 -55 -23t-62 -46l-26 -23z" />
<glyph unicode="&#xf6;" horiz-adv-x="1097" d="M133 535q0 272 92.5 389.5t317.5 117.5q207 0 304 -124t97 -388q0 -113 -11.5 -196.5t-38.5 -152t-73 -111t-115 -65.5t-163 -23q-121 0 -200 30.5t-125.5 100.5t-65.5 170t-19 252zM209 535q0 -106 8 -179t29 -135.5t58.5 -98.5t96 -55.5t142.5 -19.5q83 0 141.5 22 t94 59.5t55.5 101t27 132.5t7 168q0 231 -77.5 339t-247.5 108q-184 0 -259 -99.5t-75 -342.5zM330 1307v127h71v-127h-71zM719 1307v127h72v-127h-72z" />
<glyph unicode="&#xf7;" d="M137 582v73h811v-73h-811zM502 182v164h82v-164h-82zM502 887v164h82v-164h-82z" />
<glyph unicode="&#xf8;" horiz-adv-x="1077" d="M133 535q0 272 92.5 389.5t317.5 117.5q94 0 170 -28l-6 -15l-11 -28l-8 -21q-69 27 -145 27q-184 0 -259 -99.5t-75 -342.5q0 -183 28 -288t103 -153l-10 -24l-15 -27l-6 -14q-97 52 -136.5 173t-39.5 333zM211 -213l98 242q32 -18 60 -25l-97 -237zM340 94l348 856 q34 -14 55 -32l-350 -850q-22 7 -53 26zM369 4l8 21l10 26l6 17q61 -21 150 -21q83 0 141.5 22t94 59.5t55.5 101t27 132.5t7 168q0 289 -125 388l13 30l10 27l4 10q174 -108 174 -455q0 -113 -11.5 -196.5t-38.5 -152t-73 -111t-115 -65.5t-163 -23q-100 0 -174 22z M713 1014l92 225l61 -22l-96 -232q-23 15 -57 29z" />
<glyph unicode="&#xf9;" horiz-adv-x="1140" d="M211 492v532h72v-528q0 -105 6 -173.5t21.5 -125.5t45.5 -87.5t76 -46.5t115 -16q72 0 150.5 25.5t121.5 51.5l43 26v874h72v-1024h-72v82q-6 -4 -18 -11t-47.5 -24t-71.5 -30t-85 -24t-93 -11q-85 0 -142.5 17.5t-96 52.5t-59.5 98.5t-29.5 143t-8.5 198.5zM309 1436 l33 63l393 -196l-30 -56z" />
<glyph unicode="&#xfa;" horiz-adv-x="1140" d="M211 492v532h72v-528q0 -105 6 -173.5t21.5 -125.5t45.5 -87.5t76 -46.5t115 -16q72 0 150.5 25.5t121.5 51.5l43 26v874h72v-1024h-72v82q-6 -4 -18 -11t-47.5 -24t-71.5 -30t-85 -24t-93 -11q-85 0 -142.5 17.5t-96 52.5t-59.5 98.5t-29.5 143t-8.5 198.5zM391 1303 l393 196l33 -63l-395 -189z" />
<glyph unicode="&#xfb;" horiz-adv-x="1140" d="M211 492v532h72v-528q0 -105 6 -173.5t21.5 -125.5t45.5 -87.5t76 -46.5t115 -16q72 0 150.5 25.5t121.5 51.5l43 26v874h72v-1024h-72v82q-6 -4 -18 -11t-47.5 -24t-71.5 -30t-85 -24t-93 -11q-85 0 -142.5 17.5t-96 52.5t-59.5 98.5t-29.5 143t-8.5 198.5zM287 1229 l248 270h57l250 -270h-88l-189 205l-190 -205h-88z" />
<glyph unicode="&#xfc;" horiz-adv-x="1140" d="M211 492v532h72v-528q0 -105 6 -173.5t21.5 -125.5t45.5 -87.5t76 -46.5t115 -16q72 0 150.5 25.5t121.5 51.5l43 26v874h72v-1024h-72v82q-6 -4 -18 -11t-47.5 -24t-71.5 -30t-85 -24t-93 -11q-85 0 -142.5 17.5t-96 52.5t-59.5 98.5t-29.5 143t-8.5 198.5zM354 1307 v127h72v-127h-72zM743 1307v127h72v-127h-72z" />
<glyph unicode="&#xfd;" horiz-adv-x="983" d="M70 1024h75l289 -958h90l293 958h76l-461 -1495h-76l150 471h-129zM332 1303l393 196l33 -63l-396 -189z" />
<glyph unicode="&#xfe;" horiz-adv-x="1122" d="M227 -471v1966h72v-553q6 4 17.5 11t47 24t72.5 30t90.5 24t104.5 11q93 0 161 -36t109.5 -104t61.5 -160t20 -210q0 -278 -100.5 -414t-329.5 -136q-51 0 -114.5 5t-101.5 10l-38 5v-473h-72zM299 72q139 -25 252 -25q193 0 274.5 116.5t81.5 371.5q0 213 -71.5 327.5 t-204.5 114.5q-80 0 -163 -26.5t-126 -52.5l-43 -26v-800z" />
<glyph unicode="&#xff;" horiz-adv-x="983" d="M80 1024h76l288 -958h91l292 958h76l-461 -1495h-75l149 471h-129zM270 1307v127h72v-127h-72zM659 1307v127h72v-127h-72z" />
<glyph unicode="&#x152;" horiz-adv-x="1933" d="M133 707q0 147 16 259t53.5 206t99 154t154 93t216.5 33q177 0 321 -18h807v-70h-733v-592h610v-70h-610v-632h733v-72h-805q-212 -16 -323 -16q-125 0 -218 31t-154 88t-98.5 148t-53 201t-15.5 257zM211 711q0 -136 12 -234.5t42.5 -182.5t82.5 -135.5t132.5 -79.5 t191.5 -28q30 0 321 19v1288q-35 2 -108.5 8.5t-132 11t-80.5 4.5q-109 0 -189.5 -29.5t-132.5 -83t-83 -138.5t-43.5 -185t-12.5 -235z" />
<glyph unicode="&#x153;" horiz-adv-x="1794" d="M123 535q0 191 42.5 301t132.5 158t245 48q151 0 244 -58.5t133 -186.5q92 245 372 245q195 0 292 -116t97 -375v-68h-727q0 -222 70 -329t242 -107q64 0 157 4.5t154 9.5l61 5l4 -66q-228 -18 -378 -18q-140 0 -223 55.5t-123 163.5q-37 -115 -125 -167t-250 -52 q-129 0 -209.5 27.5t-128 96t-65 168.5t-17.5 261zM199 535q0 -70 2.5 -122t9 -102.5t18 -85t29.5 -66t43.5 -51t60.5 -34.5t79.5 -21t101.5 -6q75 0 129.5 12.5t91.5 41t60 64.5t35 95.5t16 120t4 149.5q0 241 -81 344t-255 103q-134 0 -207 -39.5t-105 -133.5t-32 -269z M954 549h652q0 230 -75.5 329t-238.5 99q-338 0 -338 -428z" />
<glyph unicode="&#x178;" horiz-adv-x="1105" d="M61 1434h84l410 -736l403 736h86l-452 -818v-616h-74v616zM328 1714v127h71v-127h-71zM729 1714v127h72v-127h-72z" />
<glyph unicode="&#x2c6;" horiz-adv-x="1705" d="M563 1229l248 270h57l250 -270h-88l-188 205l-191 -205h-88z" />
<glyph unicode="&#x2dc;" horiz-adv-x="892" d="M168 1368q11 11 29.5 27t63.5 42.5t75 26.5q43 0 156.5 -54t144.5 -54q16 0 48 21t55 42l24 21l18 -62q-10 -10 -26 -24.5t-55.5 -39t-67.5 -24.5q-43 0 -156.5 55.5t-144.5 55.5q-19 0 -55 -23t-63 -46l-26 -23z" />
<glyph unicode="&#x2000;" horiz-adv-x="956" />
<glyph unicode="&#x2001;" horiz-adv-x="1913" />
<glyph unicode="&#x2002;" horiz-adv-x="956" />
<glyph unicode="&#x2003;" horiz-adv-x="1913" />
<glyph unicode="&#x2004;" horiz-adv-x="637" />
<glyph unicode="&#x2005;" horiz-adv-x="478" />
<glyph unicode="&#x2006;" horiz-adv-x="318" />
<glyph unicode="&#x2007;" horiz-adv-x="318" />
<glyph unicode="&#x2008;" horiz-adv-x="239" />
<glyph unicode="&#x2009;" horiz-adv-x="382" />
<glyph unicode="&#x200a;" horiz-adv-x="106" />
<glyph unicode="&#x2010;" horiz-adv-x="901" d="M143 520v70h615v-70h-615z" />
<glyph unicode="&#x2011;" horiz-adv-x="901" d="M143 520v70h615v-70h-615z" />
<glyph unicode="&#x2012;" horiz-adv-x="901" d="M143 520v70h615v-70h-615z" />
<glyph unicode="&#x2013;" horiz-adv-x="1024" d="M0 516v70h1024v-70h-1024z" />
<glyph unicode="&#x2014;" horiz-adv-x="2048" d="M0 516v70h2048v-70h-2048z" />
<glyph unicode="&#x2018;" horiz-adv-x="348" d="M74 1079l100 410h59l-81 -410h-78z" />
<glyph unicode="&#x2019;" horiz-adv-x="348" d="M113 1079l82 410h77l-100 -410h-59z" />
<glyph unicode="&#x201a;" horiz-adv-x="348" d="M113 -174l82 410h77l-100 -410h-59z" />
<glyph unicode="&#x201c;" horiz-adv-x="696" d="M119 1075l100 410h60l-82 -410h-78zM414 1075l100 410h59l-81 -410h-78z" />
<glyph unicode="&#x201d;" horiz-adv-x="614" d="M119 1075l82 410h78l-101 -410h-59zM414 1075l82 410h77l-100 -410h-59z" />
<glyph unicode="&#x201e;" horiz-adv-x="614" d="M119 -174l82 410h78l-101 -410h-59zM414 -174l82 410h77l-100 -410h-59z" />
<glyph unicode="&#x2022;" d="M287 225v594h512v-594h-512z" />
<glyph unicode="&#x2026;" horiz-adv-x="1523" d="M219 0v164h82v-164h-82zM739 0v164h82v-164h-82zM1260 0v164h81v-164h-81z" />
<glyph unicode="&#x202f;" horiz-adv-x="382" />
<glyph unicode="&#x2039;" horiz-adv-x="557" d="M92 479v74l342 264v-80l-276 -217l276 -239v-84z" />
<glyph unicode="&#x203a;" horiz-adv-x="557" d="M123 197v84l276 239l-276 217v80l342 -264v-74z" />
<glyph unicode="&#x205f;" horiz-adv-x="478" />
<glyph unicode="&#x20ac;" d="M10 502v69h127q-2 33 -2 107q0 86 2 127h-127v69h131q8 102 27 179t56 141.5t92 105.5t137.5 63.5t191.5 22.5q87 0 176.5 -9.5t136.5 -18.5l46 -10l-7 -72q-186 41 -352 41q-118 0 -198 -28t-127.5 -87.5t-70 -137t-30.5 -190.5l637 -2v-67h-641q-2 -41 -2 -127 q0 -74 2 -107l641 -2v-67h-639q8 -117 31 -196t70.5 -139t128 -88t198.5 -28q64 0 152 10.5t144 20.5l56 10l7 -69q-197 -41 -359 -41q-135 0 -228.5 32t-151 100.5t-86 161t-38.5 226.5h-131z" />
<glyph unicode="&#x2122;" d="M14 1208v64h410v-64h-170v-528h-68v528h-172zM496 678v594h102l172 -496l178 496h103v-594h-66v528l-180 -506h-72l-172 506v-528h-65z" />
</font>
</defs>
</svg>
